<svg xmlns="http://www.w3.org/2000/svg" width="1200" height="941">
    <defs>
            <marker id="arrowhead" markerWidth="10" markerHeight="7"
                    refX="10" refY="3.5" orient="auto">
                <polygon points="0 0, 10 3.5, 0 7" fill="black"/>
            </marker>
        </defs>
    <rect x="59" y="410" width="254" height="135" fill="#ffffff" stroke="black" stroke-width="2"/>
<rect x="59" y="410" width="254" height="25" fill="#ffffff" stroke="black" stroke-width="1"/>
<text x="64" y="426" font-family="Arial" font-size="12" font-weight="bold">子テーブル (tbl_child)</text>
<text x="70" y="449" font-family="Arial" font-size="10" font-weight="normal" fill="black">子ID</text>
<rect x="62" y="443" width="3" height="6" fill="black"/>
<text x="135" y="449" font-family="Arial" font-size="10" fill="black">child_id</text>
<text x="211" y="449" font-family="Arial" font-size="9" fill="black">VARCHAR(36)</text>
<text x="293" y="449" font-family="Arial" font-size="9" fill="black"></text>
<text x="70" y="471" font-family="Arial" font-size="10" font-weight="normal" fill="black">IDカラム</text>
<rect x="62" y="465" width="3" height="6" fill="black"/>
<text x="135" y="471" font-family="Arial" font-size="10" fill="black">col_id</text>
<text x="211" y="471" font-family="Arial" font-size="9" fill="black">VARCHAR(36)</text>
<text x="293" y="471" font-family="Arial" font-size="9" fill="black">FK</text>
<text x="70" y="493" font-family="Arial" font-size="10" font-weight="normal" fill="black">名前</text>
<rect x="62" y="487" width="3" height="6" fill="black"/>
<text x="135" y="493" font-family="Arial" font-size="10" fill="black">name</text>
<text x="211" y="493" font-family="Arial" font-size="9" fill="black">VARCHAR(100)</text>
<text x="293" y="493" font-family="Arial" font-size="9" fill="black"></text>
<text x="70" y="515" font-family="Arial" font-size="10" font-weight="normal" fill="black">更新日時</text>
<rect x="62" y="509" width="3" height="6" fill="black"/>
<text x="135" y="515" font-family="Arial" font-size="10" fill="black">update_date</text>
<text x="211" y="515" font-family="Arial" font-size="9" fill="black">DATETIME</text>
<text x="293" y="515" font-family="Arial" font-size="9" fill="black"></text>
<text x="70" y="537" font-family="Arial" font-size="10" font-weight="normal" fill="black">更新者</text>
<rect x="62" y="531" width="3" height="6" fill="black"/>
<text x="135" y="537" font-family="Arial" font-size="10" fill="black">update_user</text>
<text x="211" y="537" font-family="Arial" font-size="9" fill="black">VARCHAR(64)</text>
<text x="293" y="537" font-family="Arial" font-size="9" fill="black"></text>
<line x1="59" y1="457" x2="313" y2="457" stroke="black" stroke-width="1"/>
<rect x="84" y="50" width="240" height="157" fill="#ffffff" stroke="black" stroke-width="2"/>
<rect x="84" y="50" width="240" height="25" fill="#ffffff" stroke="black" stroke-width="1"/>
<text x="89" y="66" font-family="Arial" font-size="12" font-weight="bold">テストテーブル (test_table)</text>
<text x="95" y="89" font-family="Arial" font-size="10" font-weight="normal" fill="black">IDカラム</text>
<rect x="87" y="83" width="3" height="6" fill="black"/>
<text x="171" y="89" font-family="Arial" font-size="10" fill="black">col_id</text>
<text x="247" y="89" font-family="Arial" font-size="9" fill="black">VARCHAR(36)</text>
<text x="95" y="111" font-family="Arial" font-size="10" font-weight="normal" fill="black">名前</text>
<rect x="87" y="105" width="3" height="6" fill="black"/>
<text x="171" y="111" font-family="Arial" font-size="10" fill="black">name</text>
<text x="247" y="111" font-family="Arial" font-size="9" fill="black">VARCHAR(100)</text>
<text x="95" y="133" font-family="Arial" font-size="10" font-weight="normal" fill="black">テスト18n</text>
<text x="171" y="133" font-family="Arial" font-size="10" fill="black">test_18n</text>
<text x="247" y="133" font-family="Arial" font-size="9" fill="black">JSON</text>
<text x="95" y="155" font-family="Arial" font-size="10" font-weight="normal" fill="black">数字</text>
<text x="171" y="155" font-family="Arial" font-size="10" fill="black">num</text>
<text x="247" y="155" font-family="Arial" font-size="9" fill="black">INT</text>
<text x="95" y="177" font-family="Arial" font-size="10" font-weight="normal" fill="black">更新日時</text>
<rect x="87" y="171" width="3" height="6" fill="black"/>
<text x="171" y="177" font-family="Arial" font-size="10" fill="black">update_date</text>
<text x="247" y="177" font-family="Arial" font-size="9" fill="black">DATETIME</text>
<text x="95" y="199" font-family="Arial" font-size="10" font-weight="normal" fill="black">更新者</text>
<rect x="87" y="193" width="3" height="6" fill="black"/>
<text x="171" y="199" font-family="Arial" font-size="10" fill="black">update_user</text>
<text x="247" y="199" font-family="Arial" font-size="9" fill="black">VARCHAR(64)</text>
<line x1="84" y1="97" x2="324" y2="97" stroke="black" stroke-width="1"/>
<rect x="50" y="756" width="237" height="135" fill="#ffffff" stroke="black" stroke-width="2"/>
<rect x="50" y="756" width="237" height="25" fill="#ffffff" stroke="black" stroke-width="1"/>
<text x="55" y="772" font-family="Arial" font-size="12" font-weight="bold">マトリックステーブル (tbl_matrix)</text>
<text x="61" y="795" font-family="Arial" font-size="10" font-weight="normal" fill="black">ID</text>
<rect x="53" y="789" width="3" height="6" fill="black"/>
<text x="115" y="795" font-family="Arial" font-size="10" fill="black">row_id</text>
<text x="191" y="795" font-family="Arial" font-size="9" fill="black">VARCHAR(36)</text>
<text x="267" y="795" font-family="Arial" font-size="9" fill="black">FK</text>
<text x="61" y="817" font-family="Arial" font-size="10" font-weight="normal" fill="black">子ID</text>
<rect x="53" y="811" width="3" height="6" fill="black"/>
<text x="115" y="817" font-family="Arial" font-size="10" fill="black">child_id</text>
<text x="191" y="817" font-family="Arial" font-size="9" fill="black">VARCHAR(36)</text>
<text x="267" y="817" font-family="Arial" font-size="9" fill="black">FK</text>
<text x="61" y="839" font-family="Arial" font-size="10" font-weight="normal" fill="black">値</text>
<rect x="53" y="833" width="3" height="6" fill="black"/>
<text x="115" y="839" font-family="Arial" font-size="10" fill="black">value</text>
<text x="191" y="839" font-family="Arial" font-size="9" fill="black">VARCHAR(20)</text>
<text x="267" y="839" font-family="Arial" font-size="9" fill="black"></text>
<text x="61" y="861" font-family="Arial" font-size="10" font-weight="normal" fill="black">更新日時</text>
<rect x="53" y="855" width="3" height="6" fill="black"/>
<text x="115" y="861" font-family="Arial" font-size="10" fill="black">update_date</text>
<text x="191" y="861" font-family="Arial" font-size="9" fill="black">DATETIME</text>
<text x="267" y="861" font-family="Arial" font-size="9" fill="black"></text>
<text x="61" y="883" font-family="Arial" font-size="10" font-weight="normal" fill="black">更新者</text>
<rect x="53" y="877" width="3" height="6" fill="black"/>
<text x="115" y="883" font-family="Arial" font-size="10" fill="black">update_user</text>
<text x="191" y="883" font-family="Arial" font-size="9" fill="black">VARCHAR(64)</text>
<text x="267" y="883" font-family="Arial" font-size="9" fill="black"></text>
<line x1="50" y1="825" x2="287" y2="825" stroke="black" stroke-width="1"/>
    <line x1="189" y1="398" x2="199" y2="219" stroke="black" stroke-width="1"/>
<line x1="189" y1="398" x2="184" y2="406" stroke="black" stroke-width="1"/>
<line x1="189" y1="398" x2="194" y2="406" stroke="black" stroke-width="1"/>
<line x1="189" y1="398" x2="189" y2="406" stroke="black" stroke-width="1"/>
<line x1="199" y1="211" x2="199" y2="219" stroke="black" stroke-width="2"/>
<line x1="195" y1="215" x2="203" y2="215" stroke="black" stroke-width="2"/>
<line x1="171" y1="744" x2="182" y2="557" stroke="black" stroke-width="1"/>
<line x1="171" y1="744" x2="166" y2="752" stroke="black" stroke-width="1"/>
<line x1="171" y1="744" x2="176" y2="752" stroke="black" stroke-width="1"/>
<line x1="171" y1="744" x2="171" y2="752" stroke="black" stroke-width="1"/>
<line x1="182" y1="549" x2="182" y2="557" stroke="black" stroke-width="2"/>
<line x1="178" y1="553" x2="186" y2="553" stroke="black" stroke-width="2"/>
</svg>